# xmcd
#
# Track frame offsets: 
#        150
#        12631
#        27191
#        40998
#        59036
#        77321
#        97571
#        117597
#        137472
#        153308
#        173045
#        189395
#        208979
#
# Disc length: 2992 seconds
#
# Revision: 1
# Processed by: cddbd v1.5.2PL0 Copyright (c) Steve Scherf et al.
# Submitted via: ExactAudioCopyFreeDBPlugin 1.0
#
DISCID=a50bae0d
DTITLE=Sine Ira - KG and LL
DYEAR=2010
DGENRE=Rap
TTITLE0=KG and LL
TTITLE1=Ihmemies
TTITLE2=Haista Klubi! (feat. Michael J. Fix)
TTITLE3=Pinta
TTITLE4=Sormet Sorviin (feat. JV)
TTITLE5=Lempibii-SI
TTITLE6=Itselleen
TTITLE7=Yhdet
TTITLE8=Niitä Ja Näitä
TTITLE9=Elämän Julkasu
TTITLE10=Ja Sen Jatko-osa
TTITLE11=Pohja (feat. Katko)
TTITLE12=Oikeesti
EXTD=
EXTT0=
EXTT1=
EXTT2=
EXTT3=
EXTT4=
EXTT5=
EXTT6=
EXTT7=
EXTT8=
EXTT9=
EXTT10=
EXTT11=
EXTT12=
PLAYORDER=
